<?xml version="1.0" encoding="UTF-8"?>
<svg version="1.1" xmlns="http://www.w3.org/2000/svg" width="1008" height="1008">
<path d="M0 0 C332.64 0 665.28 0 1008 0 C1008 332.64 1008 665.28 1008 1008 C675.36 1008 342.72 1008 0 1008 C0 675.36 0 342.72 0 0 Z " fill="#2E5C3D" transform="translate(0,0)"/>
<path d="M0 0 C1.76923828 0.01353516 1.76923828 0.01353516 3.57421875 0.02734375 C4.47785156 0.03894531 5.38148438 0.05054688 6.3125 0.0625 C6.37308594 0.90554688 6.43367188 1.74859375 6.49609375 2.6171875 C6.62177734 4.26074219 6.62177734 4.26074219 6.75 5.9375 C6.83121094 7.02804687 6.91242188 8.11859375 6.99609375 9.2421875 C7.14251703 12.00978971 7.14251703 12.00978971 8.3125 14.0625 C15.5725 14.0625 22.8325 14.0625 30.3125 14.0625 C30.6425 9.4425 30.9725 4.8225 31.3125 0.0625 C43.8525 0.0625 56.3925 0.0625 69.3125 0.0625 C69.8075 6.0025 69.8075 6.0025 70.3125 12.0625 C70.8075 13.0525 70.8075 13.0525 71.3125 14.0625 C78.5725 14.0625 85.8325 14.0625 93.3125 14.0625 C93.6425 9.4425 93.9725 4.8225 94.3125 0.0625 C106.8525 0.0625 119.3925 0.0625 132.3125 0.0625 C132.6425 4.0225 132.9725 7.9825 133.3125 12.0625 C133.6425 12.7225 133.9725 13.3825 134.3125 14.0625 C141.5725 14.0625 148.8325 14.0625 156.3125 14.0625 C156.6425 9.4425 156.9725 4.8225 157.3125 0.0625 C171.83874784 -0.6358773 171.83874784 -0.6358773 177.76171875 3.3828125 C181.94883488 7.91797607 182.68966169 12.48971066 182.70690918 18.48776245 C182.71300028 19.21411679 182.71909139 19.94047114 182.72536707 20.68883622 C182.74195499 23.11156617 182.73722743 25.53376812 182.73242188 27.95654297 C182.73976468 29.69812565 182.74835153 31.43970346 182.75808716 33.18127441 C182.78029002 37.90448929 182.78323444 42.62752965 182.78133965 47.35078955 C182.78121988 51.29705352 182.78978638 55.24328061 182.79811716 59.18953431 C182.81734695 68.50154404 182.82023665 77.81346413 182.81347656 87.12548828 C182.80683636 96.72430153 182.82970027 106.32273045 182.86679029 115.92146575 C182.89750246 124.16964902 182.90884566 132.41770875 182.90495348 140.66594803 C182.9028875 145.58914208 182.90834197 150.51203706 182.93284607 155.43517685 C182.95513561 160.06630556 182.9532171 164.69681014 182.93291855 169.32794189 C182.92951236 171.024227 182.93458075 172.72055431 182.94890213 174.41678238 C183.07031807 189.86762382 183.07031807 189.86762382 178.67758942 195.72021675 C174.06109908 200.25958067 169.55314169 200.2164596 163.375 200.25 C161.35376679 200.20214668 159.3326352 200.14452053 157.3125 200.0625 C157.26351562 199.21945312 157.21453125 198.37640625 157.1640625 197.5078125 C157.05191406 195.86425781 157.05191406 195.86425781 156.9375 194.1875 C156.83308594 192.55167969 156.83308594 192.55167969 156.7265625 190.8828125 C156.57996509 187.93203526 156.57996509 187.93203526 154.3125 186.0625 C152.32801471 185.76934915 152.32801471 185.76934915 150.06640625 185.83203125 C149.22916016 185.83396484 148.39191406 185.83589844 147.52929688 185.83789062 C146.65337891 185.85013672 145.77746094 185.86238281 144.875 185.875 C144.00294922 185.87564453 143.13089844 185.87628906 142.23242188 185.87695312 C137.19346942 185.90576223 137.19346942 185.90576223 132.3125 187.0625 C132.3125 191.3525 132.3125 195.6425 132.3125 200.0625 C119.7725 200.0625 107.2325 200.0625 94.3125 200.0625 C93.8175 194.1225 93.8175 194.1225 93.3125 188.0625 C91.55169287 185.89306519 91.55169287 185.89306519 89.38891602 185.81958008 C88.62248779 185.82368896 87.85605957 185.82779785 87.06640625 185.83203125 C86.22916016 185.83396484 85.39191406 185.83589844 84.52929688 185.83789062 C83.65337891 185.85013672 82.77746094 185.86238281 81.875 185.875 C81.00294922 185.87564453 80.13089844 185.87628906 79.23242188 185.87695312 C74.19346942 185.90576223 74.19346942 185.90576223 69.3125 187.0625 C69.3125 191.3525 69.3125 195.6425 69.3125 200.0625 C56.7725 200.0625 44.2325 200.0625 31.3125 200.0625 C30.8175 194.1225 30.8175 194.1225 30.3125 188.0625 C28.55169287 185.89306519 28.55169287 185.89306519 26.38891602 185.81958008 C25.62248779 185.82368896 24.85605957 185.82779785 24.06640625 185.83203125 C23.22916016 185.83396484 22.39191406 185.83589844 21.52929688 185.83789062 C20.65337891 185.85013672 19.77746094 185.86238281 18.875 185.875 C18.00294922 185.87564453 17.13089844 185.87628906 16.23242188 185.87695312 C11.19346942 185.90576223 11.19346942 185.90576223 6.3125 187.0625 C6.3125 191.3525 6.3125 195.6425 6.3125 200.0625 C-7.16084755 200.51665778 -7.16084755 200.51665778 -12.6875 197.0625 C-16.94800493 191.68080957 -17.81233683 187.81369208 -17.82794189 181.06719971 C-17.83091302 180.35087018 -17.83388414 179.63454065 -17.8369453 178.89650416 C-17.84563496 176.48991029 -17.84714077 174.08336614 -17.84863281 171.67675781 C-17.85326084 169.95370375 -17.85828547 168.23065072 -17.86367798 166.50759888 C-17.8768064 161.82150594 -17.88324792 157.13542734 -17.88768864 152.44931889 C-17.89061894 149.52167887 -17.89472369 146.59404277 -17.89919281 143.66640472 C-17.91286955 134.50672907 -17.92253507 125.34706237 -17.9263947 116.18737721 C-17.93087458 105.61366619 -17.94841851 95.04008449 -17.9773953 84.46641278 C-17.99901425 76.29390868 -18.00909911 68.12144096 -18.01043582 59.94890857 C-18.01148379 55.06768751 -18.01738979 50.18658799 -18.03525543 45.30539703 C-18.05173954 40.71220931 -18.05388996 36.11923445 -18.04511642 31.52602768 C-18.0443462 29.84222468 -18.04868679 28.15841022 -18.05857468 26.47463608 C-18.07130453 24.17141655 -18.06541222 21.86894969 -18.05499268 19.56573486 C-18.05645924 18.27819935 -18.0579258 16.99066383 -18.0594368 15.66411209 C-17.51210234 10.36405464 -16.13904977 6.44147228 -12.1875 2.6875 C-8.02950139 -0.0151991 -4.86068742 -0.04812562 0 0 Z " fill="#000000" transform="translate(421.6875,421.9375)"/>
<path d="M0 0 C1.04651151 -0.00346153 2.09302302 -0.00692307 3.17124701 -0.01048949 C6.67113345 -0.01841787 10.17060422 -0.00498154 13.67046928 0.00837994 C16.20760344 0.00707139 18.74473721 0.00444407 21.28186882 0.00061244 C26.79437828 -0.00469483 32.30675956 -0.00070488 37.81925583 0.01152706 C46.01604669 0.02966465 54.21277641 0.03053146 62.40958368 0.0279011 C76.19923264 0.02396309 89.98883841 0.03396957 103.77847481 0.05195332 C117.42979076 0.069711 131.08108873 0.08125249 144.73241615 0.08451176 C145.58155933 0.08471798 146.43070251 0.08492419 147.3055773 0.08513666 C151.61803523 0.08615168 155.93049318 0.08705582 160.24295114 0.08791729 C190.77942084 0.0942167 221.31586706 0.11442368 251.85232353 0.14282513 C281.51605924 0.17038301 311.17978852 0.19163161 340.84353447 0.20434856 C341.75807548 0.20474314 342.67261649 0.20513772 343.61487087 0.20554426 C352.79915878 0.20949985 361.98344674 0.21332729 371.16773474 0.21706083 C389.87679682 0.22466925 408.58585849 0.23313301 427.29491997 0.24211407 C428.58520768 0.24273187 428.58520768 0.24273187 429.90156182 0.24336216 C487.33307556 0.27095907 544.76457601 0.31855653 602.19607353 0.36914349 C602.19607353 4.98914349 602.19607353 9.60914349 602.19607353 14.36914349 C600.92084825 14.37012029 599.64562297 14.3710971 598.33175451 14.37210351 C542.12450633 14.41535376 485.91726211 14.46230725 429.71003532 14.52812481 C428.85893885 14.52912038 428.00784238 14.53011594 427.13095511 14.53114168 C408.63385234 14.55280076 390.13675043 14.57512349 371.63964929 14.59812977 C362.56853239 14.60940818 353.49741532 14.62053995 344.42629814 14.63159466 C343.0722782 14.63324851 343.0722782 14.63324851 341.69090432 14.63493577 C312.43818101 14.67059737 283.18545885 14.69657828 253.93272162 14.71753317 C223.86900723 14.73912017 193.8053185 14.77048527 163.74162767 14.81413462 C159.49428252 14.82029676 155.24693723 14.82634726 150.99959183 14.83232975 C150.16366229 14.83351063 149.32773274 14.83469151 148.466472 14.83590818 C135.01621337 14.85462174 121.56596709 14.86304306 108.11569704 14.86760473 C94.59006318 14.872412 81.06447637 14.88808797 67.53886775 14.91480915 C59.50537883 14.93035113 51.47198272 14.9376087 43.4384796 14.93291278 C37.43519085 14.93032271 31.43204173 14.94335043 25.42877819 14.962379 C23.00326584 14.96764586 20.57773617 14.96788291 18.15222398 14.96253911 C-2.57091319 14.92153849 -20.0805394 16.28104478 -35.80392647 31.36914349 C-43.17168354 39.99830644 -48.92258411 50.65056004 -48.93256092 62.1787262 C-48.93578537 63.12426465 -48.93900981 64.06980311 -48.94233197 65.04399425 C-48.94078337 66.07452912 -48.93923477 67.105064 -48.93763924 68.1668272 C-48.93990479 69.26801394 -48.94217035 70.36920067 -48.94450456 71.5037567 C-48.95084451 75.2008396 -48.95001519 78.89788583 -48.94919014 82.59497356 C-48.95218163 85.24279702 -48.95555577 87.89061759 -48.95936775 90.53843975 C-48.96767118 96.98878137 -48.97042246 103.43911385 -48.97098013 109.88946036 C-48.97145545 115.13336269 -48.97351102 120.377262 -48.97668076 125.62116337 C-48.98548663 140.49223152 -48.99010026 155.36329246 -48.98935028 170.23436324 C-48.98931033 171.03592324 -48.98927037 171.83748324 -48.9892292 172.66333294 C-48.98918832 173.46587294 -48.98914744 174.26841293 -48.98910532 175.09527232 C-48.98869891 188.1002136 -48.99826736 201.10512592 -49.01236757 214.11005882 C-49.02673503 227.46700438 -49.03363754 240.82393582 -49.03277379 254.18088931 C-49.03244194 261.6783487 -49.03518379 269.17577774 -49.04595184 276.67323017 C-49.05506172 283.05701429 -49.0572281 289.44075428 -49.05044242 295.82454208 C-49.04717962 299.0802069 -49.0482009 302.33576961 -49.05579567 305.59142971 C-49.06350379 309.12453177 -49.05887836 312.65741163 -49.05116463 316.19050884 C-49.05630819 317.21435155 -49.06145175 318.23819426 -49.06675118 319.29306251 C-49.00201272 332.71378613 -44.33961204 345.12347601 -34.99142647 354.86914349 C-20.67608135 368.02028885 -5.6620913 369.9702531 12.93948174 369.91504192 C14.90197373 369.9237918 16.86445862 369.93428248 18.82693291 369.94636822 C24.11737416 369.97407548 29.40758087 369.97763629 34.69808412 369.97664833 C40.24077604 369.97979062 45.78336436 370.00543612 51.32600212 370.02862835 C61.80515258 370.06909135 72.28424097 370.08950623 82.76345748 370.10260224 C94.70070947 370.11850521 106.63785632 370.15693469 118.57504714 370.19719553 C143.11535699 370.27946169 167.65565634 370.33283776 192.19607353 370.36914349 C192.19607353 375.31914349 192.19607353 380.26914349 192.19607353 385.36914349 C166.55279429 385.41547024 140.90952515 385.45114754 115.26621246 385.47276783 C103.35919201 385.48307398 91.45219806 385.4971217 79.54519463 385.52002239 C69.16529077 385.53997648 58.78540611 385.55286473 48.4054836 385.55732048 C42.9110205 385.55992442 37.41661231 385.56603114 31.92216682 385.5806036 C26.74630289 385.59421937 21.57051629 385.59835804 16.39463615 385.59535885 C14.49923977 385.59590722 12.6038407 385.59986078 10.70845985 385.60755444 C-11.04220194 385.69148298 -29.96522099 381.64986893 -46.23752022 366.04883099 C-59.62247108 352.07306799 -64.94865773 336.26093095 -64.95782661 317.27089214 C-64.96220887 316.16139043 -64.96659112 315.05188871 -64.97110617 313.90876573 C-64.98444869 310.19511709 -64.99066283 306.48149216 -64.99679756 302.76782513 C-65.00470215 300.10313014 -65.01296691 297.43843814 -65.02157784 294.77374554 C-65.04603806 286.78097404 -65.06071929 278.78819646 -65.0736379 270.7953991 C-65.0773544 268.53511915 -65.08132725 266.27483981 -65.08539057 264.01456046 C-65.1106309 249.95600609 -65.13266763 235.89745064 -65.14511871 221.83887863 C-65.14804804 218.58651571 -65.15100976 215.33415282 -65.15402412 212.08178997 C-65.15477017 211.27350762 -65.15551623 210.46522526 -65.15628488 209.6324495 C-65.16892622 196.55215411 -65.20213688 183.47199502 -65.24382596 170.39176328 C-65.28634577 156.93979592 -65.30982526 143.48789816 -65.31503928 130.03586382 C-65.31844194 122.49226753 -65.33006118 114.9488843 -65.36314201 107.4053545 C-65.39128217 100.97824305 -65.40208115 94.55138839 -65.39094655 88.12422014 C-65.38579528 84.85115043 -65.3911981 81.57872432 -65.41341209 78.30571079 C-65.55928425 55.56327137 -62.62465348 36.97471174 -46.31564522 19.75195599 C-33.29409604 7.39869783 -18.05336315 -0.14864212 0 0 Z " fill="#FCFCFC" transform="translate(211.8039264678955,142.63085651397705)"/>
<path d="M0 0 C25.39197662 -0.09280528 50.78391203 -0.1640854 76.17602444 -0.20724869 C87.96742483 -0.22782755 99.75871756 -0.25585834 111.55004883 -0.30175781 C121.83370114 -0.34176916 132.11727543 -0.36746675 142.40100342 -0.37635398 C147.84043135 -0.38154459 153.27963618 -0.39364596 158.71899223 -0.42292023 C163.85143859 -0.45031575 168.98357252 -0.4583968 174.11608505 -0.45243073 C175.98759097 -0.45352027 177.85910866 -0.46132898 179.73055077 -0.4768219 C202.9774932 -0.65963637 221.80035283 4.48740017 239.125 20.75 C250.66412538 32.65617509 257.31983032 48.20720928 257.27415466 64.69322205 C257.27939134 65.63953053 257.28462802 66.58583901 257.29002339 67.5608235 C257.30496617 70.71629224 257.30572729 73.87159799 257.30639648 77.02709961 C257.31402204 79.29623689 257.32245022 81.5653716 257.33161926 83.83450317 C257.35353753 89.98993827 257.36236011 96.1453237 257.36744571 102.30079341 C257.37109376 106.15235844 257.37733631 110.00391056 257.3844471 113.85547066 C257.40389851 124.54182176 257.42041363 135.22815841 257.42332363 145.91452694 C257.4235112 146.59742284 257.42369877 147.28031874 257.42389202 147.98390845 C257.42425825 149.36802518 257.42462195 150.75214192 257.42498314 152.13625865 C257.42516595 152.8232391 257.42534876 153.51021954 257.42553711 154.21801758 C257.42580793 155.24976251 257.42580793 155.24976251 257.42608423 156.30235077 C257.42962023 167.42903653 257.45660943 178.55552809 257.494035 189.6821466 C257.53224658 201.13517932 257.55104233 212.58807419 257.55178314 224.04117972 C257.55257351 230.45970982 257.56120096 236.87798941 257.58978081 243.29646111 C257.6160969 249.34177553 257.61809114 255.38663421 257.60212517 261.43198013 C257.60032118 263.63889758 257.60690531 265.84584205 257.62294388 268.05270195 C257.77149078 289.83764926 254.03667719 308.22240966 238.51171875 324.6171875 C225.10834235 337.33267678 209.63225404 344.52249999 191.08864307 344.36914349 C189.5196776 344.37433579 189.5196776 344.37433579 187.91901585 344.37963298 C184.42696857 344.38755044 180.93533935 344.3741342 177.4433136 344.36076355 C174.90944118 344.36207232 172.37556916 344.36470005 169.8416993 344.36853105 C164.33941483 344.3738354 158.83725887 344.36985484 153.33498764 344.35761642 C145.15341736 344.33946931 136.9719083 344.33861291 128.79032156 344.34124239 C115.02588395 344.34517924 101.26148961 344.33517833 87.49706459 344.31719017 C73.87169493 344.29942944 60.2463433 344.28789038 46.62096214 344.28463173 C45.77327405 344.28442551 44.92558596 344.28421929 44.05221035 344.28400682 C39.74710142 344.2829918 35.44199248 344.28208766 31.13688352 344.2812262 C0.65642896 344.27492763 -29.82400206 344.254723 -60.30444336 344.22631836 C-89.91284052 344.19875825 -119.52123125 344.17751075 -149.12963867 344.16479492 C-150.0425541 344.16440034 -150.95546953 344.16400576 -151.89604907 344.16359923 C-161.06405395 344.15964362 -170.23205889 344.15581618 -179.40006387 344.15208265 C-198.07577637 344.14447434 -216.75148844 344.13601058 -235.42720032 344.12702942 C-236.71517386 344.12641161 -236.71517386 344.12641161 -238.02916708 344.12578133 C-295.35278791 344.09818675 -352.67639542 344.05058955 -410 344 C-410 339.38 -410 334.76 -410 330 C-408.72553416 329.99940291 -407.45106832 329.99880582 -406.13798231 329.99819064 C-349.95819565 329.97160845 -293.77841331 329.9400759 -237.59864807 329.88336182 C-236.32241754 329.88207555 -236.32241754 329.88207555 -235.02040457 329.8807633 C-216.52883754 329.86209675 -198.03727154 329.84254414 -179.54570642 329.82207905 C-170.47716709 329.81204805 -161.40862755 329.80221281 -152.34008789 329.79248047 C-151.43766945 329.79150866 -150.535251 329.79053686 -149.60548655 329.7895356 C-120.36674011 329.75814037 -91.1280029 329.73966607 -61.88924253 329.72790753 C-31.83726833 329.7157536 -1.78533265 329.6905338 28.26661589 329.64892386 C32.51331949 329.64304995 36.76002329 329.63732508 41.00672722 329.63169098 C41.84252191 329.63057752 42.67831661 329.62946406 43.53943842 329.62831686 C56.98186968 329.61079164 70.42427127 329.6069995 83.86671243 329.60837079 C97.38791083 329.60945603 110.90903339 329.59600697 124.43020303 329.56783572 C132.45885545 329.55154669 140.48733613 329.54628796 148.51599885 329.55702825 C154.51925369 329.56382884 160.52227161 329.54972651 166.52549755 329.52766338 C168.9483531 329.52198245 171.37123587 329.52299096 173.79408319 329.53148755 C192.98540233 329.59300546 211.41891098 328.46217267 226.37890625 314.7578125 C236.39652673 303.89533247 241.31502064 292.0203031 241.27415466 277.35578918 C241.27939134 276.41482555 241.28462802 275.47386191 241.29002339 274.50438422 C241.30496465 271.36721838 241.30572725 268.23021649 241.30639648 265.09301758 C241.31402194 262.83709439 241.3224501 260.58117379 241.33161926 258.32525635 C241.35353362 252.20727868 241.36235913 246.08935099 241.36744571 239.97133851 C241.37109305 236.1452661 241.3773351 232.31920671 241.3844471 228.49313927 C241.40389496 217.88227091 241.4204131 207.27141337 241.42332363 196.66052723 C241.42360499 195.64357684 241.42360499 195.64357684 241.42389202 194.606082 C241.42425825 193.2319175 241.42462195 191.857753 241.42498314 190.48358849 C241.42516595 189.80153115 241.42534876 189.1194738 241.42553711 188.41674805 C241.42571766 187.73385008 241.42589821 187.05095212 241.42608423 186.34736028 C241.42962374 175.28910367 241.4566367 164.23104205 241.494035 153.17285303 C241.5321982 141.79668507 241.55104144 130.42064515 241.55178314 119.04440039 C241.55257474 112.66623911 241.56125991 106.28832957 241.58978081 99.91022682 C241.61602319 93.90760396 241.61813181 87.90544047 241.60212517 81.90278625 C241.60031559 79.70708906 241.60695668 77.51136507 241.62294388 75.31572533 C241.7484984 56.9436342 239.02830954 43.94925397 226.12890625 29.97265625 C215.32811921 19.71078582 201.29985386 15.86104925 186.75526428 15.84178162 C185.9529906 15.83684364 185.15071691 15.83190566 184.32413191 15.82681805 C181.65106712 15.8115292 178.97802619 15.80310593 176.30493164 15.79467773 C174.38273918 15.78509243 172.4605488 15.77508197 170.5383606 15.76467896 C165.33027686 15.73769452 160.12218412 15.71665004 154.91406941 15.69667697 C149.46747153 15.67477748 144.0209012 15.64740821 138.57432556 15.62062073 C128.26498569 15.57074738 117.95563048 15.5257887 107.64626068 15.48259836 C95.90748849 15.43318016 84.16874395 15.37827905 72.42999852 15.32291877 C48.2866913 15.20918098 24.14335724 15.10251861 0 15 C0 10.05 0 5.1 0 0 Z " fill="#FCFDFC" transform="translate(604,513)"/>
<path d="M0 0 C8.91 0 17.82 0 27 0 C24.57766917 1.61488722 22.27088226 2.88019257 19.6875 4.1875 C12.13165304 8.39473297 7.41774233 14.69988498 5 23 C4.42483872 28.31199774 4.46389266 33.59733372 4.49942875 38.93161678 C4.49555664 40.56094696 4.48993183 42.19027375 4.48271915 43.81959257 C4.46796769 48.30170449 4.47813163 52.78346716 4.49233114 57.26556811 C4.50337365 62.13993441 4.49122617 67.01425175 4.48202366 71.88861424 C4.46910771 80.43320514 4.47109155 88.97769239 4.48280334 97.52228355 C4.50017143 110.2283078 4.49469197 122.93425037 4.48463643 135.64027882 C4.46743154 158.33187077 4.47299355 181.02341447 4.48799362 203.71500544 C4.50103639 223.57320731 4.50624311 243.43139243 4.50367546 263.28959846 C4.50351505 264.60594435 4.50335463 265.92229023 4.50318935 267.27852538 C4.50252578 272.62177805 4.50182729 277.9650307 4.50106401 283.30828335 C4.49895233 298.24511146 4.4981999 313.18193948 4.4984808 328.11876774 C4.49849318 328.79896685 4.49850556 329.47916597 4.49851831 330.17997718 C4.49900773 351.855344 4.50543323 373.53070485 4.51603794 395.20606899 C4.51638138 395.90912756 4.51672482 396.61218613 4.51707866 397.33654951 C4.52267732 408.75385235 4.52861154 420.17115503 4.53456772 431.58845769 C4.55816778 476.86863309 4.56436328 522.1487748 4.55395508 567.42895508 C4.55330187 570.29018159 4.55265056 573.15140811 4.55199958 576.01263463 C4.55183854 576.72006338 4.55167751 577.42749213 4.55151159 578.15635812 C4.54973211 585.99090122 4.54800997 593.82544432 4.54635715 601.65998745 C4.54620779 602.36256171 4.54605842 603.06513596 4.54590453 603.78900035 C4.5380462 641.04822543 4.54365479 678.30744752 4.55447045 715.56667155 C4.55582664 720.24025682 4.5571543 724.9138421 4.55848 729.58742738 C4.55923525 732.24379672 4.56000089 734.90016605 4.56077701 737.55653539 C4.5664391 757.4031811 4.56510283 777.24981841 4.56054878 797.09646416 C4.55544488 819.66034802 4.56127655 842.22420044 4.58144308 864.78807645 C4.59244315 877.42133092 4.59520989 890.05452359 4.58615455 902.68777996 C4.5809444 911.12120528 4.58660864 919.55457761 4.60120789 927.9879918 C4.60923052 932.79644933 4.61250249 937.60478175 4.60263533 942.4132387 C4.59376015 946.78798107 4.59869142 951.16248276 4.61461477 955.53720317 C4.61792805 957.1095775 4.61622983 958.68197247 4.60888628 960.25433313 C4.56145868 971.21989911 4.95551663 981.32207318 12.12109375 990.17578125 C18.71998457 996.58260457 25.57018006 999.12372648 34.57671511 999.1276505 C35.2402911 999.12930128 35.9038671 999.13095206 36.58755145 999.13265286 C38.82530897 999.13698862 41.06300103 999.13417316 43.30076027 999.13142776 C44.92255309 999.13307689 46.54434552 999.13516293 48.16613728 999.13764787 C52.65052972 999.14323092 57.13490313 999.14253911 61.61929794 999.14087028 C66.48755373 999.14014112 71.35580407 999.14515756 76.22405756 999.1494453 C85.89213123 999.15703789 95.56019939 999.15921899 105.22827574 999.15977435 C116.80350704 999.16068675 128.37873322 999.16735059 139.95396232 999.17412117 C167.93385076 999.1901962 195.91373867 999.19608608 223.89363091 999.20086992 C237.12458421 999.20320429 250.35553709 999.20680675 263.58649006 999.2105653 C308.14941698 999.22320069 352.71234383 999.23401428 397.27527251 999.23740576 C399.40554229 999.237568 401.53581207 999.23773356 403.66608184 999.23790014 C407.93843253 999.23823394 412.21078322 999.23856442 416.48313391 999.2388947 C421.4851096 999.2392816 426.48708529 999.23967121 431.48906098 999.24006577 C432.92067174 999.24017818 434.35228249 999.2402896 435.78389325 999.24040002 C481.76504727 999.24394967 527.74618567 999.2590286 573.72733372 999.28233776 C606.76376532 999.29907809 639.80019398 999.31455391 672.83662987 999.31907272 C673.51596301 999.31916621 674.19529615 999.3192597 674.89521514 999.31935601 C689.80794699 999.32137502 704.72067879 999.3225311 719.63341077 999.3228846 C725.63363224 999.32303772 731.6338537 999.32329165 737.63407516 999.32357025 C739.60317425 999.3236539 739.60317425 999.3236539 741.61205312 999.32373925 C762.76170961 999.32489115 783.91134996 999.33592494 805.06100099 999.35045731 C826.30878663 999.36480494 847.55655153 999.36806911 868.80434068 999.36001733 C881.43535298 999.35555293 894.06629845 999.35945403 906.69730201 999.37525584 C915.12940097 999.38498041 923.56145293 999.38385177 931.99355142 999.37381961 C936.8013472 999.36840935 941.60901432 999.36777595 946.41679962 999.38032833 C950.79099229 999.39165362 955.16495142 999.38915789 959.53913594 999.37566125 C961.11132837 999.37322657 962.68353871 999.37581371 964.25571141 999.38405773 C976.24216708 999.44277682 987.06102261 998.83943421 996 990 C1001.26241252 983.41194158 1003.2479687 976.46607134 1003.255301 968.04016668 C1003.26025333 967.03734071 1003.26025333 967.03734071 1003.26530572 966.01425563 C1003.27392269 963.77756678 1003.26836375 961.54114347 1003.26285553 959.30444813 C1003.26615637 957.67635175 1003.27032963 956.04825695 1003.27529573 954.42016479 C1003.28642844 949.93223015 1003.28508434 945.44437183 1003.28174055 940.95642779 C1003.28027898 936.07909803 1003.29032276 931.20178984 1003.29889059 926.32446927 C1003.31405663 916.64468838 1003.31843702 906.96492956 1003.3195487 897.28513803 C1003.32137536 885.69337764 1003.33470853 874.10163768 1003.34824235 862.50988608 C1003.3803719 834.49327874 1003.39216955 806.47667357 1003.40173985 778.46005112 C1003.40641032 765.20979077 1003.41361542 751.95953215 1003.4211306 738.70927316 C1003.44639884 694.07370594 1003.46802681 649.43813899 1003.47481152 604.80256474 C1003.475136 602.66938838 1003.47546712 600.53621203 1003.47580029 598.40303568 C1003.47646788 594.1249232 1003.47712884 589.84681071 1003.4777894 585.56869823 C1003.4785632 580.560077 1003.47934241 575.55145578 1003.48013153 570.54283455 C1003.48035637 569.10932725 1003.48057921 567.67581994 1003.48080004 566.24231264 C1003.48789964 520.1982363 1003.51806017 474.15422237 1003.56467553 428.11016986 C1003.59815935 395.02331656 1003.62910898 361.93647504 1003.63814545 328.84960461 C1003.63833242 328.16914803 1003.63851939 327.48869145 1003.63871203 326.78761497 C1003.64275014 311.84982382 1003.64506221 296.91203286 1003.6457692 281.9742412 C1003.64607544 275.96390338 1003.64658328 269.95356557 1003.6471405 263.94322777 C1003.64730781 261.97084075 1003.64730781 261.97084075 1003.64747849 259.95860753 C1003.64978157 238.78066451 1003.67184274 217.60278599 1003.70091461 196.42486477 C1003.72961891 175.14714788 1003.73613308 153.86951384 1003.72003466 132.59178291 C1003.71111034 119.94554778 1003.71888996 107.29957975 1003.75051167 94.65337961 C1003.76997638 86.20869013 1003.76768877 77.76418827 1003.74763921 69.31950061 C1003.7368297 64.50609514 1003.73551531 59.69320345 1003.76065665 54.87984005 C1003.78335258 50.49813853 1003.77826859 46.11736826 1003.75132251 41.73569883 C1003.74646383 40.1631233 1003.75159014 38.59047581 1003.76811546 37.0179796 C1003.87247953 26.3853743 1002.4560171 17.34347681 995.28635302 9.00761624 C991.01655435 4.81768221 985.57395228 2.90658327 980 1 C980 0.67 980 0.34 980 0 C989.24 0 998.48 0 1008 0 C1008 332.64 1008 665.28 1008 1008 C675.36 1008 342.72 1008 0 1008 C0 675.36 0 342.72 0 0 Z " fill="#1B1B1B" transform="translate(0,0)"/>
<path d="M0 0 C9.36424558 6.92954173 15.2521791 15.22547076 18.46875 26.421875 C19.77587957 38.43370778 17.59334789 48.92446187 10.59375 58.859375 C3.58150338 67.35635751 -5.7970498 73.66774664 -16.9765625 74.7578125 C-30.00305164 74.89609795 -39.91403526 72.48461811 -49.53125 63.421875 C-55.79546809 57.22772646 -59.08130532 51.12154308 -60.53125 42.421875 C-260.51125 42.421875 -460.49125 42.421875 -666.53125 42.421875 C-666.53125 42.091875 -666.53125 41.761875 -666.53125 41.421875 C-466.88125 41.421875 -267.23125 41.421875 -61.53125 41.421875 C-61.53125 36.801875 -61.53125 32.181875 -61.53125 27.421875 C-261.51125 27.421875 -461.49125 27.421875 -667.53125 27.421875 C-667.53125 27.091875 -667.53125 26.761875 -667.53125 26.421875 C-467.22125 26.421875 -266.91125 26.421875 -60.53125 26.421875 C-60.20125 24.441875 -59.87125 22.461875 -59.53125 20.421875 C-56.51382301 11.29775052 -48.86765335 2.98117685 -40.53515625 -1.6171875 C-39.87386719 -1.93429688 -39.21257813 -2.25140625 -38.53125 -2.578125 C-37.88027344 -2.89523438 -37.22929688 -3.21234375 -36.55859375 -3.5390625 C-24.89632608 -8.29116409 -10.57098373 -6.59055159 0 0 Z " fill="#7A7F6A" transform="translate(875.53125,115.578125)"/>
<path d="M0 0 C8.41858085 5.24862139 15.56025012 12.56273752 19 22 C19.495 24.97 19.495 24.97 20 28 C219.98 28 419.96 28 626 28 C626 28.33 626 28.66 626 29 C426.35 29 226.7 29 21 29 C21 33.62 21 38.24 21 43 C220.98 43 420.96 43 627 43 C627 43.33 627 43.66 627 44 C426.69 44 226.38 44 20 44 C19.01 47.3 18.02 50.6 17 54 C11.79537561 64.60883615 2.95535405 70.92230018 -7.796875 75.08203125 C-17.779007 77.9427642 -28.75115143 76.51811568 -38 72 C-47.92934895 65.80947997 -55.28369799 57.162023 -58.25 45.75 C-60.32725255 34.7405615 -59.422455 24.12628269 -53.421875 14.45703125 C-40.67822505 -2.67801159 -20.00888394 -9.7744548 0 0 Z " fill="#7A7F6A" transform="translate(173,814)"/>
<path d="M0 0 C4.74054332 4.4771798 6.08502676 8.60915808 6.5 14.9375 C6.40556111 21.28851547 3.70592312 26.66907688 -0.75 31.125 C-6.37599306 35.11932454 -11.95609198 36.18351031 -18.75 35.125 C-25.60699724 32.99490313 -29.55176277 28.99808464 -33.0625 22.8125 C-34.80533704 15.99959159 -34.10333803 10.35262777 -30.75 4.125 C-27.82193145 -0.16950053 -24.81167829 -2.71367375 -19.9375 -4.5625 C-12.02969344 -5.69218665 -6.68445522 -4.5575831 0 0 Z " fill="#FCFCFC" transform="translate(167.75,834.875)"/>
<path d="M0 0 C4.74054332 4.4771798 6.08502676 8.60915808 6.5 14.9375 C6.40556111 21.28851547 3.70592312 26.66907688 -0.75 31.125 C-6.37599306 35.11932454 -11.95609198 36.18351031 -18.75 35.125 C-25.60699724 32.99490313 -29.55176277 28.99808464 -33.0625 22.8125 C-34.80533704 15.99959159 -34.10333803 10.35262777 -30.75 4.125 C-27.82193145 -0.16950053 -24.81167829 -2.71367375 -19.9375 -4.5625 C-12.02969344 -5.69218665 -6.68445522 -4.5575831 0 0 Z " fill="#FCFCFC" transform="translate(867.75,134.875)"/>
<path d="M0 0 C0.83402344 -0.00386719 1.66804687 -0.00773437 2.52734375 -0.01171875 C3.82865234 0.00568359 3.82865234 0.00568359 5.15625 0.0234375 C6.02378906 0.01183594 6.89132812 0.00023437 7.78515625 -0.01171875 C9.03619141 -0.00591797 9.03619141 -0.00591797 10.3125 0 C11.45428711 0.00507568 11.45428711 0.00507568 12.61914062 0.01025391 C15.2268907 0.50717656 15.9959879 1.35683196 17.65625 3.3984375 C17.95466479 6.37582886 18.07652068 9.13961961 18.0546875 12.1171875 C18.05755768 12.97147339 18.06042786 13.82575928 18.06338501 14.70593262 C18.06542581 16.51148135 18.05989483 18.31705219 18.04736328 20.12255859 C18.03130944 22.88819762 18.04721099 25.65237525 18.06640625 28.41796875 C18.06442382 30.17187823 18.06058015 31.9257868 18.0546875 33.6796875 C18.06379654 34.92196106 18.06379654 34.92196106 18.0730896 36.18933105 C18.00216684 41.97100853 18.00216684 41.97100853 16.26603699 44.11624146 C14.12348712 45.82278337 12.77677744 45.78551203 10.05859375 45.796875 C9.17494141 45.80074219 8.29128906 45.80460937 7.38085938 45.80859375 C6.46111328 45.79699219 5.54136719 45.78539062 4.59375 45.7734375 C3.67013672 45.78503906 2.74652344 45.79664063 1.79492188 45.80859375 C0.91255859 45.80472656 0.03019531 45.80085938 -0.87890625 45.796875 C-2.09139038 45.79179932 -2.09139038 45.79179932 -3.32836914 45.78662109 C-3.99344482 45.65852051 -4.65852051 45.53041992 -5.34375 45.3984375 C-7.94124344 41.50219734 -7.64950629 38.20043129 -7.64453125 33.6796875 C-7.64881638 32.82540161 -7.6531015 31.97111572 -7.65751648 31.09094238 C-7.66325746 29.28540941 -7.66376174 27.4798533 -7.65942383 25.67431641 C-7.65626182 22.90877977 -7.67973227 20.14431076 -7.70507812 17.37890625 C-7.7073509 15.62500135 -7.70805471 13.87109357 -7.70703125 12.1171875 C-7.716241 11.28900513 -7.72545074 10.46082275 -7.73493958 9.60754395 C-7.68819539 3.82229904 -7.68819539 3.82229904 -5.94779968 1.68063354 C-3.86807753 0.01820902 -2.64188952 0.01174422 0 0 Z " fill="#FEFEFE" transform="translate(561.34375,391.6015625)"/>
<path d="M0 0 C0.83402344 -0.00386719 1.66804688 -0.00773437 2.52734375 -0.01171875 C3.82865234 0.00568359 3.82865234 0.00568359 5.15625 0.0234375 C6.02378906 0.01183594 6.89132812 0.00023437 7.78515625 -0.01171875 C9.03619141 -0.00591797 9.03619141 -0.00591797 10.3125 0 C11.45428711 0.00507568 11.45428711 0.00507568 12.61914062 0.01025391 C15.2268907 0.50717656 15.9959879 1.35683196 17.65625 3.3984375 C17.95466479 6.37582886 18.07652068 9.13961961 18.0546875 12.1171875 C18.05755768 12.97147339 18.06042786 13.82575928 18.06338501 14.70593262 C18.06542581 16.51148135 18.05989483 18.31705219 18.04736328 20.12255859 C18.03130944 22.88819762 18.04721099 25.65237525 18.06640625 28.41796875 C18.06442382 30.17187823 18.06058015 31.9257868 18.0546875 33.6796875 C18.06379654 34.92196106 18.06379654 34.92196106 18.0730896 36.18933105 C18.00216684 41.97100853 18.00216684 41.97100853 16.26603699 44.11624146 C14.12348712 45.82278337 12.77677744 45.78551203 10.05859375 45.796875 C9.17494141 45.80074219 8.29128906 45.80460937 7.38085938 45.80859375 C6.46111328 45.79699219 5.54136719 45.78539062 4.59375 45.7734375 C3.67013672 45.78503906 2.74652344 45.79664063 1.79492188 45.80859375 C0.91255859 45.80472656 0.03019531 45.80085938 -0.87890625 45.796875 C-2.09139038 45.79179932 -2.09139038 45.79179932 -3.32836914 45.78662109 C-3.99344482 45.65852051 -4.65852051 45.53041992 -5.34375 45.3984375 C-7.94124344 41.50219734 -7.64950629 38.20043129 -7.64453125 33.6796875 C-7.64881638 32.82540161 -7.6531015 31.97111572 -7.65751648 31.09094238 C-7.66325746 29.28540941 -7.66376174 27.4798533 -7.65942383 25.67431641 C-7.65626182 22.90877977 -7.67973227 20.14431076 -7.70507812 17.37890625 C-7.7073509 15.62500135 -7.70805471 13.87109357 -7.70703125 12.1171875 C-7.716241 11.28900513 -7.72545074 10.46082275 -7.73493958 9.60754395 C-7.68819539 3.82229904 -7.68819539 3.82229904 -5.94779968 1.68063354 C-3.86807753 0.01820902 -2.64188952 0.01174422 0 0 Z " fill="#FEFEFE" transform="translate(498.34375,391.6015625)"/>
<path d="M0 0 C0.83402344 -0.00386719 1.66804688 -0.00773437 2.52734375 -0.01171875 C3.82865234 0.00568359 3.82865234 0.00568359 5.15625 0.0234375 C6.02378906 0.01183594 6.89132812 0.00023437 7.78515625 -0.01171875 C9.03619141 -0.00591797 9.03619141 -0.00591797 10.3125 0 C11.45428711 0.00507568 11.45428711 0.00507568 12.61914062 0.01025391 C15.2268907 0.50717656 15.9959879 1.35683196 17.65625 3.3984375 C17.95466479 6.37582886 18.07652068 9.13961961 18.0546875 12.1171875 C18.05755768 12.97147339 18.06042786 13.82575928 18.06338501 14.70593262 C18.06542581 16.51148135 18.05989483 18.31705219 18.04736328 20.12255859 C18.03130944 22.88819762 18.04721099 25.65237525 18.06640625 28.41796875 C18.06442382 30.17187823 18.06058015 31.9257868 18.0546875 33.6796875 C18.06379654 34.92196106 18.06379654 34.92196106 18.0730896 36.18933105 C18.00216684 41.97100853 18.00216684 41.97100853 16.26603699 44.11624146 C14.12348712 45.82278337 12.77677744 45.78551203 10.05859375 45.796875 C9.17494141 45.80074219 8.29128906 45.80460937 7.38085938 45.80859375 C6.46111328 45.79699219 5.54136719 45.78539062 4.59375 45.7734375 C3.67013672 45.78503906 2.74652344 45.79664063 1.79492188 45.80859375 C0.91255859 45.80472656 0.03019531 45.80085938 -0.87890625 45.796875 C-2.09139038 45.79179932 -2.09139038 45.79179932 -3.32836914 45.78662109 C-3.99344482 45.65852051 -4.65852051 45.53041992 -5.34375 45.3984375 C-7.94124344 41.50219734 -7.64950629 38.20043129 -7.64453125 33.6796875 C-7.64881638 32.82540161 -7.6531015 31.97111572 -7.65751648 31.09094238 C-7.66325746 29.28540941 -7.66376174 27.4798533 -7.65942383 25.67431641 C-7.65626182 22.90877977 -7.67973227 20.14431076 -7.70507812 17.37890625 C-7.7073509 15.62500135 -7.70805471 13.87109357 -7.70703125 12.1171875 C-7.716241 11.28900513 -7.72545074 10.46082275 -7.73493958 9.60754395 C-7.68819539 3.82229904 -7.68819539 3.82229904 -5.94779968 1.68063354 C-3.86807753 0.01820902 -2.64188952 0.01174422 0 0 Z " fill="#FEFEFE" transform="translate(435.34375,391.6015625)"/>
<path d="M0 0 C0.86753906 -0.01611328 1.73507812 -0.03222656 2.62890625 -0.04882812 C3.46292969 -0.04947266 4.29695312 -0.05011719 5.15625 -0.05078125 C5.91744141 -0.05376221 6.67863281 -0.05674316 7.46289062 -0.05981445 C10.07876905 0.41827934 10.83804047 1.26762717 12.5 3.3125 C12.79841479 6.28989136 12.92027068 9.05368211 12.8984375 12.03125 C12.90130768 12.88553589 12.90417786 13.73982178 12.90713501 14.61999512 C12.90917581 16.42554385 12.90364483 18.23111469 12.89111328 20.03662109 C12.87505944 22.80226012 12.89096099 25.56643775 12.91015625 28.33203125 C12.90817382 30.08594073 12.90433015 31.8398493 12.8984375 33.59375 C12.90754654 34.83602356 12.90754654 34.83602356 12.9168396 36.10339355 C12.8458912 41.8871615 12.8458912 41.8871615 11.10305786 44.03030396 C9.02406568 45.69317316 7.7978147 45.69919473 5.15625 45.7109375 C4.32222656 45.71480469 3.48820313 45.71867188 2.62890625 45.72265625 C1.32759766 45.70525391 1.32759766 45.70525391 0 45.6875 C-1.30130859 45.70490234 -1.30130859 45.70490234 -2.62890625 45.72265625 C-3.46292969 45.71878906 -4.29695312 45.71492187 -5.15625 45.7109375 C-6.29803711 45.70586182 -6.29803711 45.70586182 -7.46289062 45.70068359 C-10.07343247 45.20322895 -10.84130875 44.36016386 -12.5 42.3125 C-12.79840623 39.25242854 -12.92021977 36.40018025 -12.8984375 33.33984375 C-12.90130768 32.46099014 -12.90417786 31.58213654 -12.90713501 30.676651 C-12.90917578 28.81982783 -12.90364499 26.96298317 -12.89111328 25.10620117 C-12.87504041 22.25716362 -12.89097111 19.4095406 -12.91015625 16.56054688 C-12.9081742 14.75780936 -12.90433131 12.95507272 -12.8984375 11.15234375 C-12.90451019 10.29712631 -12.91058289 9.44190887 -12.9168396 8.56077576 C-12.88818359 6.16381836 -12.88818359 6.16381836 -12.5 2.3125 C-8.32856144 -0.46845904 -4.90037332 -0.01820347 0 0 Z " fill="#FEFEFE" transform="translate(566.5,606.6875)"/>
<path d="M0 0 C0.86753906 -0.01611328 1.73507812 -0.03222656 2.62890625 -0.04882812 C3.46292969 -0.04947266 4.29695313 -0.05011719 5.15625 -0.05078125 C5.91744141 -0.05376221 6.67863281 -0.05674316 7.46289062 -0.05981445 C10.07876905 0.41827934 10.83804047 1.26762717 12.5 3.3125 C12.79841479 6.28989136 12.92027068 9.05368211 12.8984375 12.03125 C12.90130768 12.88553589 12.90417786 13.73982178 12.90713501 14.61999512 C12.90917581 16.42554385 12.90364483 18.23111469 12.89111328 20.03662109 C12.87505944 22.80226012 12.89096099 25.56643775 12.91015625 28.33203125 C12.90817382 30.08594073 12.90433015 31.8398493 12.8984375 33.59375 C12.90754654 34.83602356 12.90754654 34.83602356 12.9168396 36.10339355 C12.8458912 41.8871615 12.8458912 41.8871615 11.10305786 44.03030396 C9.02406568 45.69317316 7.7978147 45.69919473 5.15625 45.7109375 C4.32222656 45.71480469 3.48820312 45.71867188 2.62890625 45.72265625 C1.32759766 45.70525391 1.32759766 45.70525391 0 45.6875 C-1.30130859 45.70490234 -1.30130859 45.70490234 -2.62890625 45.72265625 C-3.46292969 45.71878906 -4.29695313 45.71492187 -5.15625 45.7109375 C-6.29803711 45.70586182 -6.29803711 45.70586182 -7.46289062 45.70068359 C-10.07343247 45.20322895 -10.84130875 44.36016386 -12.5 42.3125 C-12.79840623 39.25242854 -12.92021977 36.40018025 -12.8984375 33.33984375 C-12.90130768 32.46099014 -12.90417786 31.58213654 -12.90713501 30.676651 C-12.90917578 28.81982783 -12.90364499 26.96298317 -12.89111328 25.10620117 C-12.87504041 22.25716362 -12.89097111 19.4095406 -12.91015625 16.56054688 C-12.9081742 14.75780936 -12.90433131 12.95507272 -12.8984375 11.15234375 C-12.90451019 10.29712631 -12.91058289 9.44190887 -12.9168396 8.56077576 C-12.88818359 6.16381836 -12.88818359 6.16381836 -12.5 2.3125 C-8.32856144 -0.46845904 -4.90037332 -0.01820347 0 0 Z " fill="#FEFEFE" transform="translate(503.5,606.6875)"/>
<path d="M0 0 C0.86753906 -0.01611328 1.73507812 -0.03222656 2.62890625 -0.04882812 C3.46292969 -0.04947266 4.29695313 -0.05011719 5.15625 -0.05078125 C5.91744141 -0.05376221 6.67863281 -0.05674316 7.46289062 -0.05981445 C10.07876905 0.41827934 10.83804047 1.26762717 12.5 3.3125 C12.79841479 6.28989136 12.92027068 9.05368211 12.8984375 12.03125 C12.90130768 12.88553589 12.90417786 13.73982178 12.90713501 14.61999512 C12.90917581 16.42554385 12.90364483 18.23111469 12.89111328 20.03662109 C12.87505944 22.80226012 12.89096099 25.56643775 12.91015625 28.33203125 C12.90817382 30.08594073 12.90433015 31.8398493 12.8984375 33.59375 C12.90754654 34.83602356 12.90754654 34.83602356 12.9168396 36.10339355 C12.8458912 41.8871615 12.8458912 41.8871615 11.10305786 44.03030396 C9.02406568 45.69317316 7.7978147 45.69919473 5.15625 45.7109375 C4.32222656 45.71480469 3.48820312 45.71867188 2.62890625 45.72265625 C1.32759766 45.70525391 1.32759766 45.70525391 0 45.6875 C-1.30130859 45.70490234 -1.30130859 45.70490234 -2.62890625 45.72265625 C-3.46292969 45.71878906 -4.29695313 45.71492187 -5.15625 45.7109375 C-6.29803711 45.70586182 -6.29803711 45.70586182 -7.46289062 45.70068359 C-10.07343247 45.20322895 -10.84130875 44.36016386 -12.5 42.3125 C-12.79840623 39.25242854 -12.92021977 36.40018025 -12.8984375 33.33984375 C-12.90130768 32.46099014 -12.90417786 31.58213654 -12.90713501 30.676651 C-12.90917578 28.81982783 -12.90364499 26.96298317 -12.89111328 25.10620117 C-12.87504041 22.25716362 -12.89097111 19.4095406 -12.91015625 16.56054688 C-12.9081742 14.75780936 -12.90433131 12.95507272 -12.8984375 11.15234375 C-12.90451019 10.29712631 -12.91058289 9.44190887 -12.9168396 8.56077576 C-12.88818359 6.16381836 -12.88818359 6.16381836 -12.5 2.3125 C-8.32856144 -0.46845904 -4.90037332 -0.01820347 0 0 Z " fill="#FEFEFE" transform="translate(440.5,606.6875)"/>
</svg>
